<?xml version="1.0" encoding="utf-8"?>
<svg xmlns="http://www.w3.org/2000/svg" xmlns:xlink="http://www.w3.org/1999/xlink" width="600" height="400" viewBox="0 0 2400 1600">
<defs>
  <clipPath id="clip210">
    <rect x="0" y="0" width="2400" height="1600"/>
  </clipPath>
</defs>
<path clip-path="url(#clip210)" d="M0 1600 L2400 1600 L2400 0 L0 0  Z" fill="#ffffff" fill-rule="evenodd" fill-opacity="1"/>
<defs>
  <clipPath id="clip211">
    <rect x="480" y="0" width="1681" height="1600"/>
  </clipPath>
</defs>
<path clip-path="url(#clip210)" d="M337.813 686.448 L971.541 686.448 L971.541 123.472 L337.813 123.472  Z" fill="#ffffff" fill-rule="evenodd" fill-opacity="1"/>
<defs>
  <clipPath id="clip212">
    <rect x="337" y="123" width="635" height="564"/>
  </clipPath>
</defs>
<path clip-path="url(#clip210)" d="M612.365 65.6895 L625.733 65.6895 L625.733 19.5497 L611.191 22.4663 L611.191 15.0127 L625.652 12.096 L633.835 12.096 L633.835 65.6895 L647.203 65.6895 L647.203 72.576 L612.365 72.576 L612.365 65.6895 Z" fill="#000000" fill-rule="nonzero" fill-opacity="1" /><path clip-path="url(#clip210)" d="M683.297 49.7694 Q674.263 49.7694 670.779 51.8354 Q667.296 53.9013 667.296 58.8839 Q667.296 62.8538 669.888 65.2034 Q672.521 67.5124 677.018 67.5124 Q683.216 67.5124 686.943 63.1374 Q690.71 58.7219 690.71 51.4303 L690.71 49.7694 L683.297 49.7694 M698.164 46.6907 L698.164 72.576 L690.71 72.576 L690.71 65.6895 Q688.158 69.8214 684.35 71.8063 Q680.542 73.7508 675.033 73.7508 Q668.065 73.7508 663.933 69.8619 Q659.842 65.9325 659.842 59.3701 Q659.842 51.7138 664.946 47.825 Q670.091 43.9361 680.259 43.9361 L690.71 43.9361 L690.71 43.2069 Q690.71 38.0623 687.307 35.2672 Q683.945 32.4315 677.828 32.4315 Q673.939 32.4315 670.253 33.3632 Q666.566 34.295 663.164 36.1584 L663.164 29.2718 Q667.255 27.692 671.103 26.9223 Q674.952 26.1121 678.598 26.1121 Q688.441 26.1121 693.302 31.2163 Q698.164 36.3204 698.164 46.6907 Z" fill="#000000" fill-rule="nonzero" fill-opacity="1" /><polyline clip-path="url(#clip212)" style="stroke:#000000; stroke-linecap:round; stroke-linejoin:round; stroke-width:8; stroke-opacity:1; fill:none" points="654.677,176.283 390.623,633.637 918.731,633.637 654.677,176.283 "/>
<circle clip-path="url(#clip212)" cx="654.677" cy="404.96" r="14.4" fill="#000000" fill-rule="evenodd" fill-opacity="1" stroke="none"/>
<path clip-path="url(#clip210)" d="M384.235 675.949 Q384.235 669.005 381.353 665.186 Q378.505 661.366 373.332 661.366 Q368.193 661.366 365.311 665.186 Q362.464 669.005 362.464 675.949 Q362.464 682.859 365.311 686.679 Q368.193 690.498 373.332 690.498 Q378.505 690.498 381.353 686.679 Q384.235 682.859 384.235 675.949 M390.623 691.019 Q390.623 700.949 386.214 705.776 Q381.804 710.637 372.707 710.637 Q369.339 710.637 366.353 710.116 Q363.367 709.63 360.554 708.588 L360.554 702.373 Q363.367 703.901 366.11 704.63 Q368.853 705.359 371.7 705.359 Q377.985 705.359 381.11 702.06 Q384.235 698.797 384.235 692.165 L384.235 689.005 Q382.255 692.442 379.165 694.144 Q376.075 695.845 371.769 695.845 Q364.617 695.845 360.242 690.394 Q355.867 684.942 355.867 675.949 Q355.867 666.922 360.242 661.47 Q364.617 656.019 371.769 656.019 Q376.075 656.019 379.165 657.72 Q382.255 659.422 384.235 662.859 L384.235 656.956 L390.623 656.956 L390.623 691.019 Z" fill="#008000" fill-rule="nonzero" fill-opacity="1" /><path clip-path="url(#clip210)" d="M946.89 676.436 Q946.89 669.387 943.974 665.394 Q941.092 661.366 936.022 661.366 Q930.953 661.366 928.036 665.394 Q925.154 669.387 925.154 676.436 Q925.154 683.484 928.036 687.512 Q930.953 691.505 936.022 691.505 Q941.092 691.505 943.974 687.512 Q946.89 683.484 946.89 676.436 M925.154 662.859 Q927.168 659.387 930.224 657.72 Q933.314 656.019 937.585 656.019 Q944.668 656.019 949.078 661.644 Q953.522 667.269 953.522 676.436 Q953.522 685.602 949.078 691.227 Q944.668 696.852 937.585 696.852 Q933.314 696.852 930.224 695.185 Q927.168 693.484 925.154 690.012 L925.154 695.845 L918.731 695.845 L918.731 641.818 L925.154 641.818 L925.154 662.859 Z" fill="#0000ff" fill-rule="nonzero" fill-opacity="1" /><path clip-path="url(#clip210)" d="M666.066 127.814 Q664.99 127.189 663.705 126.912 Q662.455 126.599 660.927 126.599 Q655.51 126.599 652.594 130.141 Q649.712 133.648 649.712 140.245 L649.712 160.731 L643.288 160.731 L643.288 121.842 L649.712 121.842 L649.712 127.884 Q651.726 124.342 654.955 122.641 Q658.184 120.905 662.802 120.905 Q663.462 120.905 664.26 121.009 Q665.059 121.078 666.031 121.252 L666.066 127.814 Z" fill="#ff0000" fill-rule="nonzero" fill-opacity="1" /><path clip-path="url(#clip210)" d="M1537.81 686.448 L2171.54 686.448 L2171.54 123.472 L1537.81 123.472  Z" fill="#ffffff" fill-rule="evenodd" fill-opacity="1"/>
<defs>
  <clipPath id="clip213">
    <rect x="1537" y="123" width="635" height="564"/>
  </clipPath>
</defs>
<path clip-path="url(#clip210)" d="M1809.96 65.6895 L1823.32 65.6895 L1823.32 19.5497 L1808.78 22.4663 L1808.78 15.0127 L1823.24 12.096 L1831.42 12.096 L1831.42 65.6895 L1844.79 65.6895 L1844.79 72.576 L1809.96 72.576 L1809.96 65.6895 Z" fill="#000000" fill-rule="nonzero" fill-opacity="1" /><path clip-path="url(#clip210)" d="M1892.84 49.9314 Q1892.84 41.7081 1889.43 37.0496 Q1886.07 32.3505 1880.16 32.3505 Q1874.24 32.3505 1870.84 37.0496 Q1867.48 41.7081 1867.48 49.9314 Q1867.48 58.1548 1870.84 62.8538 Q1874.24 67.5124 1880.16 67.5124 Q1886.07 67.5124 1889.43 62.8538 Q1892.84 58.1548 1892.84 49.9314 M1867.48 34.0924 Q1869.83 30.0415 1873.39 28.0971 Q1877 26.1121 1881.98 26.1121 Q1890.24 26.1121 1895.39 32.6746 Q1900.57 39.2371 1900.57 49.9314 Q1900.57 60.6258 1895.39 67.1883 Q1890.24 73.7508 1881.98 73.7508 Q1877 73.7508 1873.39 71.8063 Q1869.83 69.8214 1867.48 65.7705 L1867.48 72.576 L1859.98 72.576 L1859.98 9.54393 L1867.48 9.54393 L1867.48 34.0924 Z" fill="#000000" fill-rule="nonzero" fill-opacity="1" /><polyline clip-path="url(#clip213)" style="stroke:#000000; stroke-linecap:round; stroke-linejoin:round; stroke-width:8; stroke-opacity:1; fill:none" points="1854.68,176.283 1590.62,633.637 2118.73,633.637 1854.68,176.283 "/>
<circle clip-path="url(#clip213)" cx="1854.68" cy="633.637" r="14.4" fill="#000000" fill-rule="evenodd" fill-opacity="1" stroke="none"/>
<circle clip-path="url(#clip213)" cx="1854.68" cy="176.283" r="14.4" fill="#000000" fill-rule="evenodd" fill-opacity="1" stroke="none"/>
<polyline clip-path="url(#clip213)" style="stroke:#808080; stroke-linecap:round; stroke-linejoin:round; stroke-width:8; stroke-opacity:1; fill:none" points="1854.68,633.637 1854.68,176.283 "/>
<path clip-path="url(#clip210)" d="M1584.23 675.949 Q1584.23 669.005 1581.35 665.186 Q1578.51 661.366 1573.33 661.366 Q1568.19 661.366 1565.31 665.186 Q1562.46 669.005 1562.46 675.949 Q1562.46 682.859 1565.31 686.679 Q1568.19 690.498 1573.33 690.498 Q1578.51 690.498 1581.35 686.679 Q1584.23 682.859 1584.23 675.949 M1590.62 691.019 Q1590.62 700.949 1586.21 705.776 Q1581.8 710.637 1572.71 710.637 Q1569.34 710.637 1566.35 710.116 Q1563.37 709.63 1560.55 708.588 L1560.55 702.373 Q1563.37 703.901 1566.11 704.63 Q1568.85 705.359 1571.7 705.359 Q1577.98 705.359 1581.11 702.06 Q1584.23 698.797 1584.23 692.165 L1584.23 689.005 Q1582.26 692.442 1579.17 694.144 Q1576.07 695.845 1571.77 695.845 Q1564.62 695.845 1560.24 690.394 Q1555.87 684.942 1555.87 675.949 Q1555.87 666.922 1560.24 661.47 Q1564.62 656.019 1571.77 656.019 Q1576.07 656.019 1579.17 657.72 Q1582.26 659.422 1584.23 662.859 L1584.23 656.956 L1590.62 656.956 L1590.62 691.019 Z" fill="#008000" fill-rule="nonzero" fill-opacity="1" /><path clip-path="url(#clip210)" d="M2146.89 676.436 Q2146.89 669.387 2143.97 665.394 Q2141.09 661.366 2136.02 661.366 Q2130.95 661.366 2128.04 665.394 Q2125.15 669.387 2125.15 676.436 Q2125.15 683.484 2128.04 687.512 Q2130.95 691.505 2136.02 691.505 Q2141.09 691.505 2143.97 687.512 Q2146.89 683.484 2146.89 676.436 M2125.15 662.859 Q2127.17 659.387 2130.22 657.72 Q2133.31 656.019 2137.58 656.019 Q2144.67 656.019 2149.08 661.644 Q2153.52 667.269 2153.52 676.436 Q2153.52 685.602 2149.08 691.227 Q2144.67 696.852 2137.58 696.852 Q2133.31 696.852 2130.22 695.185 Q2127.17 693.484 2125.15 690.012 L2125.15 695.845 L2118.73 695.845 L2118.73 641.818 L2125.15 641.818 L2125.15 662.859 Z" fill="#0000ff" fill-rule="nonzero" fill-opacity="1" /><path clip-path="url(#clip210)" d="M1866.07 127.814 Q1864.99 127.189 1863.7 126.912 Q1862.45 126.599 1860.93 126.599 Q1855.51 126.599 1852.59 130.141 Q1849.71 133.648 1849.71 140.245 L1849.71 160.731 L1843.29 160.731 L1843.29 121.842 L1849.71 121.842 L1849.71 127.884 Q1851.73 124.342 1854.95 122.641 Q1858.18 120.905 1862.8 120.905 Q1863.46 120.905 1864.26 121.009 Q1865.06 121.078 1866.03 121.252 L1866.07 127.814 Z" fill="#ff0000" fill-rule="nonzero" fill-opacity="1" /><path clip-path="url(#clip210)" d="M337.813 1486.45 L971.541 1486.45 L971.541 923.472 L337.813 923.472  Z" fill="#ffffff" fill-rule="evenodd" fill-opacity="1"/>
<defs>
  <clipPath id="clip214">
    <rect x="337" y="923" width="635" height="564"/>
  </clipPath>
</defs>
<path clip-path="url(#clip210)" d="M613.783 865.689 L627.151 865.689 L627.151 819.55 L612.608 822.466 L612.608 815.013 L627.07 812.096 L635.253 812.096 L635.253 865.689 L648.621 865.689 L648.621 872.576 L613.783 872.576 L613.783 865.689 Z" fill="#000000" fill-rule="nonzero" fill-opacity="1" /><path clip-path="url(#clip210)" d="M696.746 828.948 L696.746 835.915 Q693.586 834.173 690.386 833.323 Q687.226 832.432 683.985 832.432 Q676.734 832.432 672.724 837.05 Q668.713 841.627 668.713 849.931 Q668.713 858.236 672.724 862.854 Q676.734 867.431 683.985 867.431 Q687.226 867.431 690.386 866.581 Q693.586 865.689 696.746 863.948 L696.746 870.834 Q693.627 872.292 690.264 873.022 Q686.943 873.751 683.175 873.751 Q672.926 873.751 666.891 867.31 Q660.855 860.869 660.855 849.931 Q660.855 838.832 666.931 832.472 Q673.048 826.112 683.661 826.112 Q687.105 826.112 690.386 826.841 Q693.667 827.53 696.746 828.948 Z" fill="#000000" fill-rule="nonzero" fill-opacity="1" /><polyline clip-path="url(#clip214)" style="stroke:#000000; stroke-linecap:round; stroke-linejoin:round; stroke-width:8; stroke-opacity:1; fill:none" points="654.677,976.283 390.623,1433.64 918.731,1433.64 654.677,976.283 "/>
<circle clip-path="url(#clip214)" cx="654.677" cy="1433.64" r="14.4" fill="#000000" fill-rule="evenodd" fill-opacity="1" stroke="none"/>
<circle clip-path="url(#clip214)" cx="786.704" cy="1204.96" r="14.4" fill="#000000" fill-rule="evenodd" fill-opacity="1" stroke="none"/>
<circle clip-path="url(#clip214)" cx="522.65" cy="1204.96" r="14.4" fill="#000000" fill-rule="evenodd" fill-opacity="1" stroke="none"/>
<circle clip-path="url(#clip214)" cx="654.677" cy="976.283" r="14.4" fill="#000000" fill-rule="evenodd" fill-opacity="1" stroke="none"/>
<path clip-path="url(#clip214)" d="M654.677 1433.64 L786.704 1204.96 L654.677 976.283 L522.65 1204.96 L654.677 1433.64 L654.677 1433.64  Z" fill="#808080" fill-rule="evenodd" fill-opacity="0.3"/>
<polyline clip-path="url(#clip214)" style="stroke:#000000; stroke-linecap:round; stroke-linejoin:round; stroke-width:4; stroke-opacity:0.3; fill:none" points="654.677,1433.64 786.704,1204.96 654.677,976.283 522.65,1204.96 654.677,1433.64 "/>
<path clip-path="url(#clip210)" d="M384.235 1475.95 Q384.235 1469.01 381.353 1465.19 Q378.505 1461.37 373.332 1461.37 Q368.193 1461.37 365.311 1465.19 Q362.464 1469.01 362.464 1475.95 Q362.464 1482.86 365.311 1486.68 Q368.193 1490.5 373.332 1490.5 Q378.505 1490.5 381.353 1486.68 Q384.235 1482.86 384.235 1475.95 M390.623 1491.02 Q390.623 1500.95 386.214 1505.78 Q381.804 1510.64 372.707 1510.64 Q369.339 1510.64 366.353 1510.12 Q363.367 1509.63 360.554 1508.59 L360.554 1502.37 Q363.367 1503.9 366.11 1504.63 Q368.853 1505.36 371.7 1505.36 Q377.985 1505.36 381.11 1502.06 Q384.235 1498.8 384.235 1492.16 L384.235 1489 Q382.255 1492.44 379.165 1494.14 Q376.075 1495.85 371.769 1495.85 Q364.617 1495.85 360.242 1490.39 Q355.867 1484.94 355.867 1475.95 Q355.867 1466.92 360.242 1461.47 Q364.617 1456.02 371.769 1456.02 Q376.075 1456.02 379.165 1457.72 Q382.255 1459.42 384.235 1462.86 L384.235 1456.96 L390.623 1456.96 L390.623 1491.02 Z" fill="#008000" fill-rule="nonzero" fill-opacity="1" /><path clip-path="url(#clip210)" d="M946.89 1476.44 Q946.89 1469.39 943.974 1465.39 Q941.092 1461.37 936.022 1461.37 Q930.953 1461.37 928.036 1465.39 Q925.154 1469.39 925.154 1476.44 Q925.154 1483.48 928.036 1487.51 Q930.953 1491.5 936.022 1491.5 Q941.092 1491.5 943.974 1487.51 Q946.89 1483.48 946.89 1476.44 M925.154 1462.86 Q927.168 1459.39 930.224 1457.72 Q933.314 1456.02 937.585 1456.02 Q944.668 1456.02 949.078 1461.64 Q953.522 1467.27 953.522 1476.44 Q953.522 1485.6 949.078 1491.23 Q944.668 1496.85 937.585 1496.85 Q933.314 1496.85 930.224 1495.19 Q927.168 1493.48 925.154 1490.01 L925.154 1495.85 L918.731 1495.85 L918.731 1441.82 L925.154 1441.82 L925.154 1462.86 Z" fill="#0000ff" fill-rule="nonzero" fill-opacity="1" /><path clip-path="url(#clip210)" d="M666.066 927.814 Q664.99 927.189 663.705 926.912 Q662.455 926.599 660.927 926.599 Q655.51 926.599 652.594 930.141 Q649.712 933.648 649.712 940.245 L649.712 960.731 L643.288 960.731 L643.288 921.842 L649.712 921.842 L649.712 927.884 Q651.726 924.342 654.955 922.641 Q658.184 920.905 662.802 920.905 Q663.462 920.905 664.26 921.009 Q665.059 921.078 666.031 921.252 L666.066 927.814 Z" fill="#ff0000" fill-rule="nonzero" fill-opacity="1" /></svg>
